<svg xmlns="http://www.w3.org/2000/svg" width="512" height="512" viewBox="0 0 512 512"><defs><symbol id="idle" viewBox="0 0 128 128"><ellipse cx="64" cy="116" rx="34" ry="6" fill="#111522" opacity=".28"/><path d="M47 42 Q43 63 47 91 L37 112 L56 112 L64 86 L73 112 L94 112 L81 89 Q84 62 78 42Z" fill="#377bb5" stroke="#171a2a" stroke-width="4" stroke-linejoin="round"/><path d="M49 53 L29 75 M78 52 L98 72" fill="none" stroke="#171a2a" stroke-width="7" stroke-linecap="round"/><path d="M48 47 Q25 43 11 56 Q31 54 53 64" fill="none" stroke="#9feeff" stroke-width="8" stroke-linecap="round"/><circle cx="64" cy="29" r="17" fill="#e9c6a5" stroke="#171a2a" stroke-width="4"/><path d="M47 29 Q48 7 67 8 Q86 10 82 35 L74 21 L64 28 L54 20Z" fill="#24334e" stroke="#171a2a" stroke-width="4" stroke-linejoin="round"/><path d="M53 31 L60 29 M69 29 L76 31" fill="none" stroke="#171a2a" stroke-width="2.5" stroke-linecap="round"/><path d="M58 38 Q64 41 70 38" fill="none" stroke="#171a2a" stroke-width="2.5" stroke-linecap="round"/></symbol><symbol id="move" viewBox="0 0 128 128"><ellipse cx="64" cy="116" rx="34" ry="6" fill="#111522" opacity=".28"/><path d="M49 42 Q45 62 51 87 L28 108 L47 113 L66 88 L82 112 L101 106 L79 82 Q83 59 77 42Z" fill="#377bb5" stroke="#171a2a" stroke-width="4" stroke-linejoin="round"/><path d="M49 53 L23 63 M78 52 L101 42" fill="none" stroke="#171a2a" stroke-width="7" stroke-linecap="round"/><path d="M48 47 Q25 43 11 56 Q31 54 53 64" fill="none" stroke="#9feeff" stroke-width="8" stroke-linecap="round"/><circle cx="64" cy="29" r="17" fill="#e9c6a5" stroke="#171a2a" stroke-width="4"/><path d="M47 29 Q48 7 67 8 Q86 10 82 35 L74 21 L64 28 L54 20Z" fill="#24334e" stroke="#171a2a" stroke-width="4" stroke-linejoin="round"/><path d="M53 31 L60 29 M69 29 L76 31" fill="none" stroke="#171a2a" stroke-width="2.5" stroke-linecap="round"/><path d="M58 38 L71 37" fill="none" stroke="#171a2a" stroke-width="2.5" stroke-linecap="round"/></symbol><symbol id="attack" viewBox="0 0 128 128"><ellipse cx="64" cy="116" rx="34" ry="6" fill="#111522" opacity=".28"/><path d="M48 43 Q43 66 50 91 L35 113 L56 113 L67 88 L79 112 L101 108 L82 86 Q84 62 76 43Z" fill="#377bb5" stroke="#171a2a" stroke-width="4" stroke-linejoin="round"/><path d="M50 53 L87 61 M75 50 L111 44" fill="none" stroke="#171a2a" stroke-width="7" stroke-linecap="round"/><path d="M48 47 Q25 43 11 56 Q31 54 53 64" fill="none" stroke="#9feeff" stroke-width="8" stroke-linecap="round"/><circle cx="63" cy="29" r="17" fill="#e9c6a5" stroke="#171a2a" stroke-width="4"/><path d="M46 29 Q48 6 68 8 Q85 11 81 35 L71 19 L62 27 L53 19Z" fill="#24334e" stroke="#171a2a" stroke-width="4"/><path d="M52 30 L60 27 M67 27 L76 30" fill="none" stroke="#171a2a" stroke-width="2.5" stroke-linecap="round"/><path d="M58 38 L71 36" fill="none" stroke="#171a2a" stroke-width="2.5" stroke-linecap="round"/><path d="M91 28 Q115 40 120 64" fill="none" stroke="#7ce7ff" stroke-width="7" stroke-linecap="round" opacity=".75"/></symbol><symbol id="guard" viewBox="0 0 128 128"><ellipse cx="64" cy="116" rx="34" ry="6" fill="#111522" opacity=".28"/><path d="M50 43 Q44 65 47 91 L37 112 L56 112 L64 88 L74 112 L94 112 L81 88 Q84 63 77 43Z" fill="#377bb5" stroke="#171a2a" stroke-width="4" stroke-linejoin="round"/><path d="M50 53 L77 69 M77 51 L49 72" fill="none" stroke="#171a2a" stroke-width="7" stroke-linecap="round"/><path d="M48 47 Q25 43 11 56 Q31 54 53 64" fill="none" stroke="#9feeff" stroke-width="8" stroke-linecap="round"/><circle cx="64" cy="29" r="17" fill="#e9c6a5" stroke="#171a2a" stroke-width="4"/><path d="M47 29 Q48 7 67 8 Q86 10 82 35 L74 21 L64 28 L54 20Z" fill="#24334e" stroke="#171a2a" stroke-width="4" stroke-linejoin="round"/><path d="M53 31 L60 29 M69 29 L76 31" fill="none" stroke="#171a2a" stroke-width="2.5" stroke-linecap="round"/><path d="M58 39 Q64 35 70 39" fill="none" stroke="#171a2a" stroke-width="2.5" stroke-linecap="round"/><path d="M90 49 Q108 64 92 83" fill="none" stroke="#7ce7ff" stroke-width="5" stroke-linecap="round" opacity=".8"/></symbol></defs><g transform="translate(0 0)"><use href="#idle" width="128" height="128"/></g><g transform="translate(128 -2)"><use href="#idle" width="128" height="128"/></g><g transform="translate(256 0)"><use href="#idle" width="128" height="128"/></g><g transform="translate(384 2)"><use href="#idle" width="128" height="128"/></g><g transform="translate(0 128)"><use href="#move" width="128" height="128"/></g><path d="M10 216 L30 216" stroke="#7ce7ff" stroke-width="3" opacity=".45"/><g transform="translate(128 126)"><use href="#move" width="128" height="128"/></g><path d="M138 213 L160 213" stroke="#7ce7ff" stroke-width="3" opacity=".45"/><g transform="translate(256 128)"><use href="#move" width="128" height="128"/></g><path d="M266 210 L290 210" stroke="#7ce7ff" stroke-width="3" opacity=".45"/><g transform="translate(384 130)"><use href="#move" width="128" height="128"/></g><path d="M394 207 L420 207" stroke="#7ce7ff" stroke-width="3" opacity=".45"/><g transform="translate(0 256)"><use href="#attack" width="128" height="128"/></g><g transform="translate(128 254)"><use href="#attack" width="128" height="128"/></g><g transform="translate(256 256)"><use href="#attack" width="128" height="128"/></g><g transform="translate(384 258)"><use href="#attack" width="128" height="128"/></g><g transform="translate(0 384)"><use href="#guard" width="128" height="128"/></g><circle cx="92" cy="450" r="24" fill="none" stroke="#7ce7ff" stroke-width="2" opacity=".18"/><g transform="translate(128 382)"><use href="#guard" width="128" height="128"/></g><circle cx="220" cy="450" r="26" fill="none" stroke="#7ce7ff" stroke-width="2" opacity=".23"/><g transform="translate(256 384)"><use href="#guard" width="128" height="128"/></g><circle cx="348" cy="450" r="28" fill="none" stroke="#7ce7ff" stroke-width="2" opacity=".28"/><g transform="translate(384 386)"><use href="#guard" width="128" height="128"/></g><circle cx="476" cy="450" r="30" fill="none" stroke="#7ce7ff" stroke-width="2" opacity=".33"/></svg>